<mxfile host="app.diagrams.net" modified="2023-07-03T15:46:35.397Z" agent="Mozilla/5.0 (Windows NT 10.0; Win64; x64) AppleWebKit/537.36 (KHTML, like Gecko) Chrome/114.0.0.0 Safari/537.36" etag="r1vlmsG7fY2U2OnNQ0kH" version="21.5.2" type="device">
  <diagram name="Page-1" id="J25ODh8fBJpKcfdakHOK">
    <mxGraphModel dx="1799" dy="946" grid="1" gridSize="10" guides="1" tooltips="1" connect="1" arrows="1" fold="1" page="1" pageScale="1" pageWidth="827" pageHeight="1169" math="0" shadow="0">
      <root>
        <mxCell id="0" />
        <mxCell id="1" parent="0" />
        <mxCell id="6Xp0P8PG5TZgidBWLYAM-1" value="" style="shape=mxgraph.cisco.routers.10700;sketch=0;html=1;pointerEvents=1;dashed=0;fillColor=#1ba1e2;strokeColor=#006EAF;strokeWidth=2;verticalLabelPosition=bottom;verticalAlign=top;align=center;outlineConnect=0;fontColor=#ffffff;" vertex="1" parent="1">
          <mxGeometry x="288" y="311" width="59" height="38" as="geometry" />
        </mxCell>
        <mxCell id="6Xp0P8PG5TZgidBWLYAM-2" value="" style="shape=mxgraph.cisco.computers_and_peripherals.laptop;sketch=0;html=1;pointerEvents=1;dashed=0;fillColor=#E2F779;strokeColor=#B09500;strokeWidth=2;verticalLabelPosition=bottom;verticalAlign=top;align=center;outlineConnect=0;fontColor=#000000;" vertex="1" parent="1">
          <mxGeometry x="40" y="280" width="90" height="61" as="geometry" />
        </mxCell>
        <mxCell id="6Xp0P8PG5TZgidBWLYAM-4" value="" style="shape=mxgraph.cisco.computers_and_peripherals.macintosh;sketch=0;html=1;pointerEvents=1;dashed=0;fillColor=#E2F779;strokeColor=#B09500;strokeWidth=2;verticalLabelPosition=bottom;verticalAlign=top;align=center;outlineConnect=0;fontColor=#ffffff;" vertex="1" parent="1">
          <mxGeometry x="44" y="400" width="99" height="64" as="geometry" />
        </mxCell>
        <mxCell id="6Xp0P8PG5TZgidBWLYAM-5" value="" style="shape=mxgraph.cisco.computers_and_peripherals.macintosh;sketch=0;html=1;pointerEvents=1;dashed=0;fillColor=#E2F779;strokeColor=#B09500;strokeWidth=2;verticalLabelPosition=bottom;verticalAlign=top;align=center;outlineConnect=0;fontColor=#000000;" vertex="1" parent="1">
          <mxGeometry x="40" y="150" width="99" height="64" as="geometry" />
        </mxCell>
        <mxCell id="6Xp0P8PG5TZgidBWLYAM-7" value="" style="shape=mxgraph.cisco.servers.fileserver;sketch=0;html=1;pointerEvents=1;dashed=0;fillColor=#e3c800;strokeColor=#B09500;strokeWidth=2;verticalLabelPosition=bottom;verticalAlign=top;align=center;outlineConnect=0;fontColor=#000000;" vertex="1" parent="1">
          <mxGeometry x="810" y="284.5" width="43" height="62" as="geometry" />
        </mxCell>
        <mxCell id="6Xp0P8PG5TZgidBWLYAM-12" value="" style="shape=mxgraph.cisco.servers.fileserver;sketch=0;html=1;pointerEvents=1;dashed=0;fillColor=#e3c800;strokeColor=#B09500;strokeWidth=2;verticalLabelPosition=bottom;verticalAlign=top;align=center;outlineConnect=0;fontColor=#000000;" vertex="1" parent="1">
          <mxGeometry x="910" y="284.5" width="43" height="62" as="geometry" />
        </mxCell>
        <mxCell id="6Xp0P8PG5TZgidBWLYAM-14" value="" style="endArrow=classic;html=1;rounded=0;fillColor=#60a917;strokeColor=#24BD33;" edge="1" parent="1">
          <mxGeometry width="50" height="50" relative="1" as="geometry">
            <mxPoint x="160" y="200" as="sourcePoint" />
            <mxPoint x="288" y="276" as="targetPoint" />
          </mxGeometry>
        </mxCell>
        <mxCell id="6Xp0P8PG5TZgidBWLYAM-15" value="" style="endArrow=classic;html=1;rounded=0;fillColor=#60a917;strokeColor=#24BD33;" edge="1" parent="1">
          <mxGeometry width="50" height="50" relative="1" as="geometry">
            <mxPoint x="139" y="321.76" as="sourcePoint" />
            <mxPoint x="259" y="321.76" as="targetPoint" />
          </mxGeometry>
        </mxCell>
        <mxCell id="6Xp0P8PG5TZgidBWLYAM-18" value="" style="endArrow=classic;html=1;rounded=0;fillColor=#60a917;strokeColor=#24BD33;" edge="1" parent="1">
          <mxGeometry width="50" height="50" relative="1" as="geometry">
            <mxPoint x="164" y="442" as="sourcePoint" />
            <mxPoint x="274" y="360" as="targetPoint" />
          </mxGeometry>
        </mxCell>
        <mxCell id="6Xp0P8PG5TZgidBWLYAM-19" value="" style="endArrow=classic;html=1;rounded=0;fillColor=#d80073;strokeColor=#A50040;" edge="1" parent="1">
          <mxGeometry width="50" height="50" relative="1" as="geometry">
            <mxPoint x="270" y="290" as="sourcePoint" />
            <mxPoint x="150" y="214" as="targetPoint" />
          </mxGeometry>
        </mxCell>
        <mxCell id="6Xp0P8PG5TZgidBWLYAM-20" value="" style="endArrow=classic;html=1;rounded=0;fillColor=#60a917;strokeColor=#24BD33;" edge="1" parent="1">
          <mxGeometry width="50" height="50" relative="1" as="geometry">
            <mxPoint x="660" y="312.23" as="sourcePoint" />
            <mxPoint x="780" y="312.23" as="targetPoint" />
          </mxGeometry>
        </mxCell>
        <mxCell id="6Xp0P8PG5TZgidBWLYAM-22" value="Petici贸n" style="text;html=1;strokeColor=none;fillColor=none;align=center;verticalAlign=middle;whiteSpace=wrap;rounded=0;" vertex="1" parent="1">
          <mxGeometry x="230" y="214" width="60" height="30" as="geometry" />
        </mxCell>
        <mxCell id="6Xp0P8PG5TZgidBWLYAM-23" value="Petici贸n" style="text;html=1;strokeColor=none;fillColor=none;align=center;verticalAlign=middle;whiteSpace=wrap;rounded=0;" vertex="1" parent="1">
          <mxGeometry x="170" y="295.5" width="60" height="30" as="geometry" />
        </mxCell>
        <mxCell id="6Xp0P8PG5TZgidBWLYAM-24" value="Petici贸n" style="text;html=1;strokeColor=none;fillColor=none;align=center;verticalAlign=middle;whiteSpace=wrap;rounded=0;" vertex="1" parent="1">
          <mxGeometry x="160" y="380" width="60" height="30" as="geometry" />
        </mxCell>
        <mxCell id="6Xp0P8PG5TZgidBWLYAM-25" value="Petici贸n" style="text;html=1;strokeColor=none;fillColor=none;align=center;verticalAlign=middle;whiteSpace=wrap;rounded=0;" vertex="1" parent="1">
          <mxGeometry x="690" y="289" width="60" height="30" as="geometry" />
        </mxCell>
        <mxCell id="6Xp0P8PG5TZgidBWLYAM-26" value="Respuesta" style="text;html=1;strokeColor=none;fillColor=none;align=center;verticalAlign=middle;whiteSpace=wrap;rounded=0;" vertex="1" parent="1">
          <mxGeometry x="690" y="334.5" width="60" height="30" as="geometry" />
        </mxCell>
        <mxCell id="6Xp0P8PG5TZgidBWLYAM-27" value="Respuesta" style="text;html=1;strokeColor=none;fillColor=none;align=center;verticalAlign=middle;whiteSpace=wrap;rounded=0;" vertex="1" parent="1">
          <mxGeometry x="230" y="420" width="60" height="30" as="geometry" />
        </mxCell>
        <mxCell id="6Xp0P8PG5TZgidBWLYAM-28" value="Respuesta" style="text;html=1;strokeColor=none;fillColor=none;align=center;verticalAlign=middle;whiteSpace=wrap;rounded=0;" vertex="1" parent="1">
          <mxGeometry x="170" y="341" width="60" height="30" as="geometry" />
        </mxCell>
        <mxCell id="6Xp0P8PG5TZgidBWLYAM-29" value="Respuesta" style="text;html=1;strokeColor=none;fillColor=none;align=center;verticalAlign=middle;whiteSpace=wrap;rounded=0;" vertex="1" parent="1">
          <mxGeometry x="150" y="250" width="60" height="30" as="geometry" />
        </mxCell>
        <mxCell id="6Xp0P8PG5TZgidBWLYAM-30" value="" style="endArrow=classic;html=1;rounded=0;fillColor=#d80073;strokeColor=#A50040;" edge="1" parent="1">
          <mxGeometry width="50" height="50" relative="1" as="geometry">
            <mxPoint x="780" y="332.83000000000004" as="sourcePoint" />
            <mxPoint x="660" y="332.83000000000004" as="targetPoint" />
          </mxGeometry>
        </mxCell>
        <mxCell id="6Xp0P8PG5TZgidBWLYAM-31" value="" style="endArrow=classic;html=1;rounded=0;fillColor=#d80073;strokeColor=#A50040;" edge="1" parent="1">
          <mxGeometry width="50" height="50" relative="1" as="geometry">
            <mxPoint x="290" y="380" as="sourcePoint" />
            <mxPoint x="169" y="464" as="targetPoint" />
          </mxGeometry>
        </mxCell>
        <mxCell id="6Xp0P8PG5TZgidBWLYAM-32" value="" style="endArrow=classic;html=1;rounded=0;fillColor=#d80073;strokeColor=#A50040;" edge="1" parent="1">
          <mxGeometry width="50" height="50" relative="1" as="geometry">
            <mxPoint x="249" y="340" as="sourcePoint" />
            <mxPoint x="139" y="340" as="targetPoint" />
          </mxGeometry>
        </mxCell>
        <mxCell id="6Xp0P8PG5TZgidBWLYAM-35" value="" style="image;sketch=0;aspect=fixed;html=1;points=[];align=center;fontSize=12;image=img/lib/mscae/CustomDomain.svg;" vertex="1" parent="1">
          <mxGeometry x="105.71" y="140" width="36" height="30.24" as="geometry" />
        </mxCell>
        <mxCell id="6Xp0P8PG5TZgidBWLYAM-36" value="" style="image;sketch=0;aspect=fixed;html=1;points=[];align=center;fontSize=12;image=img/lib/mscae/CustomDomain.svg;" vertex="1" parent="1">
          <mxGeometry x="106" y="266" width="35.71" height="30" as="geometry" />
        </mxCell>
        <mxCell id="6Xp0P8PG5TZgidBWLYAM-37" value="" style="image;sketch=0;aspect=fixed;html=1;points=[];align=center;fontSize=12;image=img/lib/mscae/CustomDomain.svg;" vertex="1" parent="1">
          <mxGeometry x="107" y="389.76" width="36" height="30.24" as="geometry" />
        </mxCell>
        <mxCell id="6Xp0P8PG5TZgidBWLYAM-38" value="" style="shape=mxgraph.cisco.storage.cloud;sketch=0;html=1;pointerEvents=1;dashed=0;fillColor=#5CB8B8;strokeColor=#5CB8B8;strokeWidth=2;verticalLabelPosition=bottom;verticalAlign=top;align=center;outlineConnect=0;" vertex="1" parent="1">
          <mxGeometry x="520" y="287" width="115" height="64" as="geometry" />
        </mxCell>
        <mxCell id="6Xp0P8PG5TZgidBWLYAM-39" value="" style="endArrow=classic;html=1;rounded=0;fillColor=#60a917;strokeColor=#24BD33;" edge="1" parent="1">
          <mxGeometry width="50" height="50" relative="1" as="geometry">
            <mxPoint x="370" y="312.23" as="sourcePoint" />
            <mxPoint x="490" y="312.23" as="targetPoint" />
          </mxGeometry>
        </mxCell>
        <mxCell id="6Xp0P8PG5TZgidBWLYAM-40" value="Petici贸n" style="text;html=1;strokeColor=none;fillColor=none;align=center;verticalAlign=middle;whiteSpace=wrap;rounded=0;" vertex="1" parent="1">
          <mxGeometry x="400" y="289" width="60" height="30" as="geometry" />
        </mxCell>
        <mxCell id="6Xp0P8PG5TZgidBWLYAM-41" value="Respuesta" style="text;html=1;strokeColor=none;fillColor=none;align=center;verticalAlign=middle;whiteSpace=wrap;rounded=0;" vertex="1" parent="1">
          <mxGeometry x="400" y="334.5" width="60" height="30" as="geometry" />
        </mxCell>
        <mxCell id="6Xp0P8PG5TZgidBWLYAM-42" value="" style="endArrow=classic;html=1;rounded=0;fillColor=#d80073;strokeColor=#A50040;" edge="1" parent="1">
          <mxGeometry width="50" height="50" relative="1" as="geometry">
            <mxPoint x="490" y="332.83000000000004" as="sourcePoint" />
            <mxPoint x="370" y="332.83000000000004" as="targetPoint" />
          </mxGeometry>
        </mxCell>
        <mxCell id="6Xp0P8PG5TZgidBWLYAM-43" value="Router" style="text;html=1;strokeColor=#3948CC;fillColor=none;align=center;verticalAlign=middle;whiteSpace=wrap;rounded=1;" vertex="1" parent="1">
          <mxGeometry x="287" y="281" width="60" height="30" as="geometry" />
        </mxCell>
        <mxCell id="6Xp0P8PG5TZgidBWLYAM-44" value="&lt;font color=&quot;#000000&quot;&gt;Internet&lt;/font&gt;" style="text;html=1;strokeColor=none;fillColor=none;align=center;verticalAlign=middle;whiteSpace=wrap;rounded=1;" vertex="1" parent="1">
          <mxGeometry x="552" y="304" width="60" height="30" as="geometry" />
        </mxCell>
        <mxCell id="6Xp0P8PG5TZgidBWLYAM-45" value="Servidor" style="text;html=1;strokeColor=#AD9600;fillColor=none;align=center;verticalAlign=middle;whiteSpace=wrap;rounded=1;" vertex="1" parent="1">
          <mxGeometry x="793" y="351" width="60" height="30" as="geometry" />
        </mxCell>
        <mxCell id="6Xp0P8PG5TZgidBWLYAM-46" value="Servidor-&lt;br&gt;R茅plica" style="text;html=1;strokeColor=#AD9600;fillColor=none;align=center;verticalAlign=middle;whiteSpace=wrap;rounded=1;" vertex="1" parent="1">
          <mxGeometry x="901.5" y="351" width="60" height="30" as="geometry" />
        </mxCell>
        <mxCell id="6Xp0P8PG5TZgidBWLYAM-47" value="PC" style="text;html=1;strokeColor=#b09500;fillColor=none;align=center;verticalAlign=middle;whiteSpace=wrap;rounded=1;" vertex="1" parent="1">
          <mxGeometry x="63.5" y="470" width="60" height="30" as="geometry" />
        </mxCell>
        <mxCell id="6Xp0P8PG5TZgidBWLYAM-48" value="PC" style="text;html=1;strokeColor=#b09500;fillColor=none;align=center;verticalAlign=middle;whiteSpace=wrap;rounded=1;" vertex="1" parent="1">
          <mxGeometry x="59.5" y="220" width="60" height="30" as="geometry" />
        </mxCell>
        <mxCell id="6Xp0P8PG5TZgidBWLYAM-49" value="PC" style="text;html=1;strokeColor=#b09500;fillColor=none;align=center;verticalAlign=middle;whiteSpace=wrap;rounded=1;" vertex="1" parent="1">
          <mxGeometry x="55" y="346.5" width="60" height="30" as="geometry" />
        </mxCell>
        <mxCell id="6Xp0P8PG5TZgidBWLYAM-50" value="PC" style="text;html=1;strokeColor=#b09500;fillColor=none;align=center;verticalAlign=middle;whiteSpace=wrap;rounded=1;" vertex="1" parent="1">
          <mxGeometry x="59.5" y="220" width="60" height="30" as="geometry" />
        </mxCell>
        <mxCell id="6Xp0P8PG5TZgidBWLYAM-51" value="Petici贸n" style="text;html=1;strokeColor=none;fillColor=none;align=center;verticalAlign=middle;whiteSpace=wrap;rounded=0;" vertex="1" parent="1">
          <mxGeometry x="230" y="214" width="60" height="30" as="geometry" />
        </mxCell>
        <mxCell id="6Xp0P8PG5TZgidBWLYAM-52" value="Petici贸n" style="text;html=1;strokeColor=none;fillColor=none;align=center;verticalAlign=middle;whiteSpace=wrap;rounded=0;" vertex="1" parent="1">
          <mxGeometry x="170" y="295.5" width="60" height="30" as="geometry" />
        </mxCell>
      </root>
    </mxGraphModel>
  </diagram>
</mxfile>
